<svg xmlns="http://www.w3.org/2000/svg" viewBox="0 0 1024 1024">
  <defs>
    <linearGradient id="g" x1="0" y1="0" x2="1" y2="1">
      <stop offset="0" stop-color="#6d4aff"/>
      <stop offset="1" stop-color="#d64592"/>
    </linearGradient>
  </defs>
  <rect width="1024" height="1024" rx="256" fill="url(#g)"/>
  <path d="M800 128 L820.8 171.2 L864 192 L820.8 212.8 L800 256 L779.2 212.8 L736 192 L779.2 171.2 Z" fill="#ffe9b0"/>
  <circle cx="144" cy="736" r="20.8" fill="#ffe9b0" opacity="0.9"/>

  <path d="M672 464 L832 544 L832 768 L672 848 L512 768 L512 544 Z" fill="none" stroke="#ffffff" stroke-width="38.4" stroke-linejoin="round"/>
  <path d="M672 464 L672 656 M672 656 L512 544 M672 656 L832 544 M672 656 L592 800 M672 656 L752 800" stroke="#ffffff" stroke-width="28.8" stroke-linecap="round" opacity="0.85"/>

  <circle cx="224" cy="272" r="72" fill="#fff6e8"/>
  <circle cx="480" cy="256" r="72" fill="#fff6e8"/>
  <ellipse cx="160" cy="480" rx="112" ry="88" fill="#fff6e8"/>
  <ellipse cx="544" cy="480" rx="112" ry="88" fill="#fff6e8"/>
  <circle cx="352" cy="416" r="176" fill="#fff6e8"/>
  <circle cx="288" cy="400" r="25.6" fill="#3a2360"/>
  <circle cx="416" cy="400" r="25.6" fill="#3a2360"/>
  <circle cx="352" cy="464" r="19.2" fill="#3a2360"/>
</svg>
